HIERARCHY
ROOT Hips
{
  OFFSET 267.745 86.9975 -272.335
  CHANNELS 6 Xposition Yposition Zposition Zrotation Xrotation Yrotation
  JOINT LeftUpLeg
  {
    OFFSET 8.64259 1.95398 -2.38835
    CHANNELS 3 Zrotation Xrotation Yrotation
    JOINT LeftLeg
    {
      OFFSET 43.7702 0 0
      CHANNELS 3 Zrotation Xrotation Yrotation
      JOINT LeftFoot
      {
        OFFSET 40.6238 0 0
        CHANNELS 3 Zrotation Xrotation Yrotation
        JOINT LeftToeBase
        {
          OFFSET 12.7242 0 0
          CHANNELS 3 Zrotation Xrotation Yrotation
          End Site
          {
            OFFSET 0 0 0
          }
        }
      }
    }
  }
  JOINT RightUpLeg
  {
    OFFSET -8.2249 1.95398 -2.59336
    CHANNELS 3 Zrotation Xrotation Yrotation
    JOINT RightLeg
    {
      OFFSET 43.5653 0 0
      CHANNELS 3 Zrotation Xrotation Yrotation
      JOINT RightFoot
      {
        OFFSET 40.6238 0 0
        CHANNELS 3 Zrotation Xrotation Yrotation
        JOINT RightToeBase
        {
          OFFSET 12.7242 0 0
          CHANNELS 3 Zrotation Xrotation Yrotation
          End Site
          {
            OFFSET 0 0 0
          }
        }
      }
    }
  }
  JOINT Spine
  {
    OFFSET 0.165834 0.87714 6.61349
    CHANNELS 3 Zrotation Xrotation Yrotation
    JOINT Spine1
    {
      OFFSET 7.38963 1.71661e-005 0
      CHANNELS 3 Zrotation Xrotation Yrotation
      JOINT Spine2
      {
        OFFSET 11.9445 1.14441e-005 0
        CHANNELS 3 Zrotation Xrotation Yrotation
        JOINT Spine3
        {
          OFFSET 14.7254 4.19617e-005 0
          CHANNELS 3 Zrotation Xrotation Yrotation
          JOINT Spine4
          {
            OFFSET 10.9679 0 0
            CHANNELS 3 Zrotation Xrotation Yrotation
            JOINT RightShoulder
            {
              OFFSET 2.46616 -1.6653 3.69651
              CHANNELS 3 Zrotation Xrotation Yrotation
              JOINT RightArm
              {
                OFFSET 13.0012 0 0
                CHANNELS 3 Zrotation Xrotation Yrotation
                JOINT RightForeArm
                {
                  OFFSET 28.7848 1.52588e-005 0
                  CHANNELS 3 Zrotation Xrotation Yrotation
                  JOINT RightHand
                  {
                    OFFSET 26.5688 1.52588e-005 0
                    CHANNELS 3 Zrotation Xrotation Yrotation
                    End Site
                    {
                      OFFSET 0 0 0
                    }
                  }
                }
              }
            }
            JOINT LeftShoulder
            {
              OFFSET 2.38034 -1.29275 -3.7523
              CHANNELS 3 Zrotation Xrotation Yrotation
              JOINT LeftArm
              {
                OFFSET 16.3182 6.10352e-005 0
                CHANNELS 3 Zrotation Xrotation Yrotation
                JOINT LeftForeArm
                {
                  OFFSET 27.0901 0 0
                  CHANNELS 3 Zrotation Xrotation Yrotation
                  JOINT LeftHand
                  {
                    OFFSET 24.5451 1.52588e-005 0
                    CHANNELS 3 Zrotation Xrotation Yrotation
                    End Site
                    {
                      OFFSET 0 0 0
                    }
                  }
                }
              }
            }
            JOINT Neck
            {
              OFFSET 5.0226 -0.0266342 0
              CHANNELS 3 Zrotation Xrotation Yrotation
              JOINT Head
              {
                OFFSET 6.69364 2.86102e-005 0
                CHANNELS 3 Zrotation Xrotation Yrotation
                End Site
                {
                  OFFSET 0 0 0
                }
              }
            }
          }
        }
      }
    }
  }
}
MOTION
Frames:	14
Frame Time:	0.0416667
-315.992 76.6219 327.924 99.1101 19.0452 86.6847 -160.545 27.0508 100.462 -63.6764 28.9572 -21.4886 55.8268 -0.809758 57.9117 99.8767 -1.32512 12.9873 85.6176 44.1243 53.2301 -67.4016 -20.8498 25.8575 178.474 39.2465 -39.0782 167.338 -17.7776 20.2855 3.86772 5.63449 -90.7658 15.7257 7.25567 -2.69147 4.07157 7.1302 -3.00948 -18.6259 7.72584 -0.374141 1.38678 7.72584 -0.374145 127.678 -21.7359 -25.5592 40.6431 -17.5011 4.51148 7.93626 -54.2987 0.00885042 -8.33619 -0.512999 2.09903 -56.7852 -42.1322 131.437 61.2732 -68.9874 66.2429 -137.364 -75.3851 -162.094 140.376 -17.7313 -10.359 -63.0841 -1.06392 -5.70585 13.452 -6.1962 -12.5357 
-316.126 76.5961 328.068 99.1562 19.0834 86.7189 -160.376 27.1692 100.493 -63.8081 29.3206 -21.2838 54.7405 -2.71439 57.5593 101.435 -1.38518 12.8731 86.0415 44.062 52.7527 -66.7819 -21.7412 26.2354 175.994 37.7442 -37.5306 167.939 -17.7521 20.3978 3.86608 5.63928 -90.775 15.7163 7.24813 -2.70791 4.06214 7.12194 -3.02556 -18.6349 7.72482 -0.39213 1.37779 7.72482 -0.392129 127.675 -21.6901 -25.5244 40.5995 -17.3942 4.51953 7.95157 -54.4942 0.0088927 -8.18246 -0.527625 2.46631 -56.7547 -42.1424 131.481 60.9721 -68.9105 65.8833 -137.403 -75.482 -162.068 140.534 -17.773 -10.3461 -63.0313 -1.05994 -5.62978 13.3947 -6.17112 -12.6759 
-316.515 76.5012 328.493 99.2917 19.1964 86.8189 -159.925 27.4593 100.627 -63.8788 30.981 -20.8319 51.646 -8.54657 56.5789 105.776 -1.60543 12.5032 87.3055 43.8764 51.3315 -65.0051 -24.179 27.3942 169.047 33.3082 -33.5898 169.765 -17.4846 20.8241 3.86134 5.65335 -90.8021 15.6889 7.22576 -2.75603 4.03447 7.09749 -3.07263 -18.6613 7.71817 -0.444878 1.35137 7.71817 -0.444874 127.667 -21.5578 -25.4232 40.4717 -17.0845 4.54283 7.99618 -55.0472 0.00901507 -7.74632 -0.564874 3.52245 -56.666 -42.1719 131.609 60.098 -68.6814 64.8406 -137.553 -75.7488 -162.028 140.986 -17.9042 -10.3125 -62.8765 -1.04763 -5.40815 13.2282 -6.09675 -13.0851 
-317.139 76.2823 329.188 99.5128 19.3831 86.9818 -159.306 27.7303 100.947 -64.0574 33.2204 -20.0459 46.6605 -16.8916 53.4576 112.009 -2.12481 11.7816 89.4236 43.5603 48.9581 -62.2517 -27.5855 29.4156 158.433 26.1944 -28.7555 172.847 -16.1783 21.8824 3.85308 5.67628 -90.846 15.6442 7.18842 -2.83409 3.98943 7.05675 -3.14892 -18.7042 7.70606 -0.530768 1.30846 7.70607 -0.530769 127.655 -21.3481 -25.2604 40.2638 -16.5898 4.57991 8.06672 -55.8897 0.0092098 -7.0812 -0.608717 5.17641 -56.5228 -42.2183 131.816 58.7162 -68.2987 63.1918 -137.865 -76.1526 -162.03 141.699 -18.1284 -10.2635 -62.6257 -1.02524 -5.05197 12.9632 -5.97368 -13.7445 
-317.98 75.8614 330.148 99.8169 19.6448 87.2053 -158.611 27.7098 101.486 -64.5054 35.3374 -18.8373 39.6337 -25.5678 46.6471 118.777 -3.13664 10.6104 92.4072 43.0623 45.6395 -58.7181 -31.2021 32.3778 144.61 17.0887 -24.5052 176.792 -11.7251 24.155 3.8408 5.70752 -90.9061 15.5831 7.13539 -2.94057 3.92779 6.99907 -3.2529 -18.7628 7.68748 -0.648591 1.24988 7.68749 -0.648593 127.64 -21.0712 -25.0413 39.9789 -15.9297 4.62935 8.15541 -56.9441 0.00946866 -6.2542 -0.640219 7.31165 -56.3291 -42.2784 132.096 56.9157 -67.7577 61.0379 -138.381 -76.6653 -162.126 142.641 -18.4446 -10.201 -62.2851 -0.990148 -4.57329 12.6127 -5.80166 -14.6339 
-319.029 75.167 331.37 100.203 19.9848 87.488 -157.861 27.196 102.19 -65.0135 37.7777 -17.4 31.0608 -32.7254 36.7007 124.733 -4.68806 9.05445 96.1799 42.2213 41.4949 -54.5301 -34.2689 36.2654 127.753 7.24461 -21.8226 179.562 0.0367797 28.5598 3.82363 5.74676 -90.9816 15.5063 7.06538 -3.07418 3.85027 6.92328 -3.38321 -18.8362 7.66093 -0.797475 1.17644 7.66093 -0.79747 127.625 -20.7374 -24.7706 39.6204 -15.1245 4.69006 8.24899 -58.139 0.0097843 -5.33618 -0.643871 9.79396 -56.0889 -42.3486 132.444 54.8016 -67.0524 58.4957 -139.142 -77.2607 -162.364 143.782 -18.852 -10.1264 -61.8619 -0.939476 -3.98462 12.1912 -5.58016 -15.733 
-320.293 74.1546 332.858 100.692 20.3537 87.8502 -157.023 26.1493 103.035 -65.7628 40.3713 -15.8037 22.3907 -36.9514 25.2521 129.09 -6.5139 7.39557 100.526 40.7482 36.8391 -56.5482 -29.1776 37.1821 108.502 -1.64208 -11.9397 174.732 23.8451 38.1964 3.80673 5.79544 -91.0765 15.4112 6.98684 -3.24352 3.75423 6.83737 -3.54883 -18.9274 7.63697 -0.983085 1.08524 7.63698 -0.983087 127.61 -20.3575 -24.4532 39.1924 -14.1967 4.76123 8.32864 -59.4147 0.0101504 -4.39501 -0.610979 12.4757 -55.806 -42.4247 132.856 52.4866 -66.1795 55.689 -140.195 -77.9103 -162.796 145.094 -19.3539 -10.0412 -61.363 -0.86998 -3.29879 11.7143 -5.30892 -17.021 
-321.802 72.7747 334.609 100.925 21.6303 87.961 -156.589 24.9856 103.146 -67.1421 42.914 -13.7767 15.368 -38.487 14.6513 131.828 -8.17394 5.97184 105.016 37.622 31.6113 92.7161 -14.8203 142.044 86.5452 6.14467 -135.593 145.845 50.2216 66.8354 3.69159 5.82307 -91.124 15.3505 6.73665 -3.29459 3.69212 6.58522 -3.58871 -18.9777 7.41388 -1.10823 1.03492 7.41389 -1.10822 127.598 -19.9425 -24.0941 38.7 -13.1717 4.84236 8.37205 -60.7251 0.0105618 -3.48976 -0.541246 15.2037 -55.4849 -42.5024 133.325 50.0811 -65.1408 52.7393 -141.596 -78.5792 -163.486 146.546 -19.9618 -9.94919 -60.796 -0.778521 -2.52949 11.1986 -4.98836 -18.4758 
-323.537 71.155 336.616 101.411 22.1229 88.3484 -155.704 23.2152 103.949 -68.5116 45.4352 -12.1319 11.1094 -38.3324 6.58726 133.375 -9.37792 4.96909 109.544 33.4689 27.0722 113.625 8.99642 138.279 99.3781 20.6544 -165.143 93.5326 51.257 114.891 3.66657 5.87531 -91.2269 15.2478 6.63848 -3.47703 3.58835 6.47913 -3.76654 -19.0755 7.37515 -1.31231 0.937168 7.37513 -1.31232 127.591 -19.5029 -23.6985 38.1501 -12.077 4.93326 8.35871 -62.0389 0.0110152 -2.66216 -0.441874 17.8407 -55.1301 -42.577 133.847 47.6825 -63.9449 49.7544 -143.414 -79.222 -164.509 148.107 -20.6995 -9.85638 -60.169 -0.662343 -1.69052 10.6602 -4.61991 -20.0753 
-325.522 69.3563 338.862 102.016 22.4479 88.848 -154.672 21.0726 104.964 -69.9535 47.8467 -10.5311 9.23049 -37.4564 1.06009 134.21 -10.0727 4.40829 113.95 27.326 23.0432 119.928 10.1712 132.107 116.528 31.622 -170.551 69.8472 38.2871 132.739 3.66275 5.93871 -91.354 15.1242 6.57074 -3.71063 3.46376 6.40114 -3.9968 -19.1946 7.3807 -1.55601 0.818034 7.38071 -1.55601 127.59 -19.048 -23.2712 37.5505 -10.9405 5.03381 8.27485 -63.3352 0.0115086 -1.93522 -0.323803 20.2816 -54.7463 -42.6447 134.415 45.3667 -62.6051 46.8193 -145.73 -79.7809 -165.948 149.746 -21.6052 -9.77166 -59.4898 -0.519578 -0.795429 10.1147 -4.20634 -21.7982 
-327.74 67.4875 341.31 102.671 22.833 89.3872 -153.617 18.5938 106.022 -71.2534 50.0944 -8.89287 8.94666 -36.3918 -2.49115 134.668 -10.3445 4.21355 118.05 18.1237 19.6641 57.0505 -30.7599 107.588 61.2127 1.65487 -93.6785 61.0429 28.6432 135.839 3.65433 6.00667 -91.4905 14.9912 6.48974 -3.96029 3.32959 6.30928 -4.24254 -19.3222 7.37852 -1.81911 0.690456 7.37851 -1.81911 127.595 -18.5867 -22.8172 36.9104 -9.79028 5.144 8.1153 -64.5983 0.0120401 -1.3165 -0.198412 22.4554 -54.3384 -42.7014 135.023 43.1871 -61.1401 43.9962 -148.611 -80.1787 -167.876 151.428 -22.7366 -9.70724 -58.7661 -0.348899 0.142703 9.57616 -3.7516 -23.6234 
-330.108 65.7317 343.867 103.035 23.2473 89.7715 -152.459 15.5291 106.672 -71.6923 52.1136 -7.41691 9.38029 -35.4162 -4.82711 134.952 -10.3163 4.28234 121.294 4.50964 17.2693 -19.1691 -10.5475 68.5157 30.2202 -10.0367 -15.1951 57.0023 22.6995 134.914 3.64132 6.05391 -91.5924 14.891 6.41665 -4.13773 3.22833 6.22852 -4.4165 -19.4174 7.36208 -2.01086 0.595284 7.36208 -2.01087 127.609 -18.1267 -22.3417 36.2403 -8.65451 5.26357 7.88405 -65.8142 0.0126063 -0.802047 -0.0754062 24.3249 -53.9116 -42.7436 135.664 41.1755 -59.5725 41.3253 -152.067 -80.3088 -170.309 153.113 -24.1789 -9.67986 -58.0059 -0.149895 1.1108 9.05751 -3.26102 -25.5297 
-332.826 64.6512 346.346 108.802 24.1096 93.4316 -151.131 11.3461 114.749 -74.2639 54.8975 -3.06193 10.6245 -34.4146 -5.93993 135.173 -10.0948 4.52548 127.362 -21.4023 18.7407 74.7336 -22.011 84.2839 65.14 65.4739 -77.5811 56.0462 19.643 130.558 3.61194 6.4515 -92.4456 14.1152 5.9612 -5.72 2.4442 5.70411 -5.97638 -20.152 7.40288 -3.66169 -0.139356 7.40288 -3.66169 127.631 -17.6746 -21.8497 35.5516 -7.55913 5.39198 7.59322 -66.9699 0.0132018 -0.380586 0.0386514 25.8841 -53.4714 -42.7684 136.332 39.345 -57.9262 38.8274 -155.969 -80.0281 -173.123 154.752 -26.0526 -9.71239 -57.2167 0.0768065 2.09635 8.56931 -2.74101 -27.4968 
-335.004 64.5503 348.136 111.398 24.993 95.1575 -148.503 5.78402 118.651 -70.8374 55.7773 -0.722959 9.93164 -32.6843 -8.46109 135.364 -9.74907 4.88053 151.725 -38.2173 44.9417 65.4844 -43.8051 79.5832 -9.34018 53.7975 8.95616 81.4831 29.5025 92.2188 3.57526 6.64291 -92.8629 13.7325 5.69832 -6.48587 2.05661 5.40802 -6.72953 -20.508 7.38182 -4.47413 -0.495341 7.38182 -4.47414 127.663 -17.2355 -21.3463 34.8555 -6.52612 5.52849 7.25941 -68.0531 0.0138188 -0.038242 0.140393 27.1487 -53.0231 -42.7734 137.02 37.6938 -56.2243 36.5078 -160.001 -79.1546 -176.005 156.285 -28.5178 -9.83703 -56.4056 0.329859 3.08822 8.11976 -2.19867 -29.5056 
